<?xml version="1.0" encoding="UTF-8" standalone="no"?>
<!-- Created with Inkscape (http://www.inkscape.org/) -->

<svg
   width="246"
   height="318.96024"
   viewBox="0 0 246 318.96024"
   version="1.1"
   id="svg1"
   inkscape:version="1.3.2 (091e20e, 2023-11-25, custom)"
   sodipodi:docname="avatar.svg"
   xmlns:inkscape="http://www.inkscape.org/namespaces/inkscape"
   xmlns:sodipodi="http://sodipodi.sourceforge.net/DTD/sodipodi-0.dtd"
   xmlns="http://www.w3.org/2000/svg"
   xmlns:svg="http://www.w3.org/2000/svg">
  <sodipodi:namedview
     id="namedview1"
     pagecolor="#ffffff"
     bordercolor="#000000"
     borderopacity="0.25"
     inkscape:showpageshadow="false"
     inkscape:pageopacity="0.0"
     inkscape:pagecheckerboard="0"
     inkscape:deskcolor="#d1d1d1"
     inkscape:document-units="px"
     inkscape:zoom="1"
     inkscape:cx="70.5"
     inkscape:cy="502.5"
     inkscape:window-width="2560"
     inkscape:window-height="1017"
     inkscape:window-x="-8"
     inkscape:window-y="-8"
     inkscape:window-maximized="1"
     inkscape:current-layer="layer2" />
  <defs
     id="defs1">
    <clipPath
       clipPathUnits="userSpaceOnUse"
       id="clipPath15">
      <path
         style="fill:#ff00ff;fill-opacity:0.304878;stroke-width:0.710692"
         d="m 809.64356,791.92314 c -0.51706,-1.57228 -7.32809,-0.63395 -16.35569,-0.51125 -9.02759,0.12271 -17.99015,-0.89699 -18.6932,0.53017 -0.46646,0.94687 5.73659,10.58371 17.64824,9.95286 11.91166,-0.63086 18.30893,-7.20981 17.40065,-9.97178 z"
         id="path15"
         inkscape:label="mouth"
         sodipodi:nodetypes="sssss"
         sodipodi:insensitive="true" />
    </clipPath>
  </defs>
  <g
     inkscape:label="BG"
     inkscape:groupmode="layer"
     id="layer1"
     sodipodi:insensitive="true"
     style="display:none"
     transform="translate(-393,-318.88486)">
    <circle
       style="fill:#6acbfa;fill-opacity:1;stroke-width:1.40751"
       id="path1"
       cx="518.15985"
       cy="484.90991"
       r="244.17995" />
  </g>
  <g
     inkscape:groupmode="layer"
     id="layer2"
     inkscape:label="Avatar"
     transform="translate(-393,-318.88486)">
    <ellipse
       style="fill:#fcdeaf;stroke-linecap:round;stroke-linejoin:bevel;stroke-opacity:0.192073"
       id="path2"
       cx="624"
       cy="500.5"
       rx="15"
       ry="25"
       inkscape:label="right ear" />
    <ellipse
       style="fill:#fcdeaf;stroke-linecap:round;stroke-linejoin:bevel;stroke-opacity:0.192073"
       id="path2-3"
       cx="408"
       cy="500.5"
       rx="15"
       ry="25"
       inkscape:label="left ear" />
    <path
       id="path3"
       style="fill:#fcdeaf;fill-opacity:1;stroke-width:1.86602"
       d="m 511.1009,343.79779 c 0,21.26074 -34.29159,2.21216 -50.43127,9.99279 -24.84003,11.97495 -46.02506,27.80353 -50.21054,69.00831 -9.54429,93.96147 3.94107,127.70392 23.21781,162.23513 16.65751,32.22468 51.58076,52.10161 82.39738,52.79853 27.52552,0.6225 63.2687,-22.03887 81.30223,-53.98072 19.27666,-34.53118 33.77737,-67.05254 24.23311,-161.01402 -4.18547,-41.20477 -24.35525,-57.03336 -49.19525,-69.00827 -17.57758,-8.47383 -35.73407,-10.51363 -55.19779,-9.85453 -2.04939,-0.0823 -6.11568,-2.60766 -6.11568,-0.17728 z"
       sodipodi:nodetypes="sssssssscss"
       inkscape:label="head" />
    <g
       id="g10"
       inkscape:label="right eye"
       transform="matrix(2.7714675,0,0,2.8433649,-1672.2812,-1661.3099)"
       style="display:inline">
      <circle
         style="fill:#ffffff;fill-opacity:1"
         id="path5-9"
         cx="807.21973"
         cy="759.29156"
         r="9.8747435" />
      <circle
         style="fill:#000000;fill-opacity:1;stroke-width:0.642858"
         id="path5-5-1"
         cx="759.70844"
         cy="-807.48566"
         r="6.3480496"
         transform="rotate(90)" />
      <circle
         style="fill:#ffffff;fill-opacity:1;stroke-width:0.380953"
         id="path5-5-1-0"
         cx="755.0061"
         cy="-809.94348"
         r="3.7618072"
         transform="rotate(90)" />
      <rect
         style="fill:#fcdeaf;fill-opacity:1;stroke:none;stroke-width:1;stroke-linecap:round;stroke-linejoin:bevel;stroke-dasharray:none;stroke-opacity:0.192073"
         id="rect16"
         width="25.5"
         height="8.5"
         x="796.91162"
         y="766.84143"
         transform="matrix(1.064335,0,0,1.0374222,-53.153216,-31.98571)" />
    </g>
    <g
       id="g11"
       inkscape:label="left eye"
       transform="matrix(0.95745568,0,0,0.94602578,33.925408,44.432444)"
       style="display:inline">
      <circle
         style="fill:#ffffff;fill-opacity:1;stroke-width:2.94977"
         id="path5-9-0"
         cx="453.72058"
         cy="479.60855"
         r="29.128222" />
      <circle
         style="fill:#000000;fill-opacity:1;stroke-width:1.89628"
         id="path5-5-1-8"
         cx="480.83823"
         cy="-454.50507"
         r="18.725286"
         transform="rotate(90)" />
      <circle
         style="fill:#ffffff;fill-opacity:1;stroke-width:1.12372"
         id="path5-5-1-0-4"
         cx="466.96744"
         cy="-461.75507"
         r="11.096466"
         transform="rotate(90)" />
      <rect
         style="fill:#fcdeaf;fill-opacity:1;stroke:none;stroke-width:3.09941;stroke-linecap:round;stroke-linejoin:bevel;stroke-dasharray:none;stroke-opacity:0.192073"
         id="rect16-3"
         width="78.561478"
         height="26.503553"
         x="409.90948"
         y="491.86429" />
    </g>
    <path
       style="fill:#000000;fill-opacity:0.128049;stroke-width:2.07545"
       d="m 504.04477,544.53753 c 10.77437,-0.36872 26.92412,-0.60296 26.92412,-0.60296 0,0 -7.79431,11.0213 -14.50766,10.41834 -6.71335,-0.60294 -12.41646,-9.81538 -12.41646,-9.81538 z"
       id="path6"
       inkscape:label="nose"
       sodipodi:nodetypes="ccsc" />
    <path
       style="fill:#000000;fill-opacity:0.0609756;stroke-width:2.56544"
       d="m 436.00838,379.90531 c 0,0 3.67207,-24.96703 11.54079,-31.90232 7.8687,-6.9353 23.08154,-10.40296 23.08154,-10.40296 l -9.96703,12.48352 c 0,0 68.72006,-21.4994 93.8999,-9.01586 25.17988,12.48352 48.2614,20.80585 48.2614,20.80585 l -19.93406,2.08059 c 0,0 40.91726,16.6447 45.63851,52.01468 4.72121,35.36999 -14.42595,-7.8022 -14.42595,-7.8022 0,0 8.42637,43.0993 8.61373,46.61216 1.03612,19.42721 4.20696,10.54223 0.66587,51.19478 -0.5775,6.62984 -5.77411,-9.47066 -5.77411,-9.47066 0,0 5.00451,-27.74003 -7.78534,-40.58295 -6.46117,-6.48798 -31.71758,-53.64744 -31.71758,-53.64744 5.82886,10.11568 -3.55054,42.78969 -4.76944,59.77095 -5.78953,-12.15783 -15.22246,-56.22586 -21.74355,-68.93479 -1.07201,6.73285 -6.46954,35.38647 -7.71653,52.42219 -12.66722,-18.9426 -57.00889,-55.8116 -68.28738,-54.42453 -22.55695,2.77411 -16.28194,7.46056 -16.28194,7.46056 0,0 -12.28265,34.74018 -10.7089,40.98192 1.57373,6.24178 -4.72119,-15.25762 -4.72119,-15.25762 0,0 -16.2322,-0.88001 -18.30414,13.06028 -1.51801,10.2134 -6.60711,7.16102 -9.03882,33.93832 -1.61804,17.81741 -2.57879,30.83817 -2.57879,30.83817 l -4.75699,10.25411 c 0,0 -0.40525,3.41283 -0.96761,-7.43824 -0.65188,-12.57831 -3.5078,-49.98683 3.83629,-77.03448 7.76818,-28.60935 12.40043,-34.13345 12.40043,-34.13345 l -11.54076,1.38708 z"
       id="path7-2"
       sodipodi:nodetypes="csccsccscsscsccccscscssccssccc"
       inkscape:label="hair shadow" />
    <path
       style="fill:#392316;fill-opacity:1;stroke-width:2.56544"
       d="m 435.76648,361.61969 c 0,0 3.67208,-24.96703 11.54079,-31.90233 7.86871,-6.93529 23.08157,-10.40295 23.08157,-10.40295 l -9.96705,12.48351 c 0,0 68.72006,-21.49939 93.89991,-9.01585 25.17986,12.48351 48.26141,20.80585 48.26141,20.80585 l -19.93408,2.08059 c 0,0 40.91728,16.6447 45.63852,52.01468 4.72122,35.36998 1.57373,38.83764 1.57373,38.83764 0,0 -6.73754,-10.99007 -5.77039,-7.62881 4.97968,17.30589 6.9268,12.96019 0.76281,36.10114 -1.67669,6.29475 -7.15798,-10.88489 -7.15798,-10.88489 0,0 0.53024,-2.16199 -18.83218,-7.93384 -8.51731,-2.53898 -19.88656,-45.02358 -19.88656,-45.02358 5.82885,10.11568 -4.66337,25.62571 -5.88224,42.60698 -5.78955,-12.15783 -14.85154,-42.49468 -21.37263,-55.20362 -1.07201,6.73285 -6.84048,21.6553 -8.08747,38.69101 -12.66721,-18.94259 -53.67046,-41.09961 -64.94893,-39.71254 -22.55696,2.77411 -20.36224,5.98936 -20.36224,5.98936 0,0 -11.54078,21.4994 -9.96705,27.74114 1.57375,6.24177 -4.7212,-15.25763 -4.7212,-15.25763 0,0 -5.60948,12.64262 -7.68143,26.58291 -1.51801,10.2134 -3.52688,4.75638 -9.97915,22.47034 -5.99907,-1.56239 -6.17295,-4.04079 -11.01499,-3.19233 -4.84204,0.84846 -9.10905,1.46914 -5.36331,-26.69095 3.92454,-29.50445 14.62941,-49.68525 14.62941,-49.68525 l -11.5408,1.38707 z"
       id="path7"
       sodipodi:nodetypes="csccsccscsscsccccscscsczsccc"
       inkscape:label="hair" />
    <g
       id="g12"
       inkscape:label="mouth"
       style="display:inline"
       clip-path="url(#clipPath15)"
       transform="matrix(3.272093,0,0,3.8578099,-2077.0827,-2484.4574)">
      <path
         style="fill:#1a1a1a;fill-opacity:1;stroke-width:0.710692"
         d="m 809.70156,791.95772 c -0.51706,-1.57228 -7.32809,-0.63395 -16.35569,-0.51125 -9.02759,0.12271 -17.99015,-0.89699 -18.6932,0.53017 -0.46646,0.94687 5.73659,10.58371 17.64824,9.95286 11.91166,-0.63086 18.30893,-7.20981 17.40065,-9.97178 z"
         id="path4"
         inkscape:label="mouth"
         sodipodi:nodetypes="sssss" />
      <path
         style="fill:#dd8e8a;fill-opacity:1;stroke-width:1.28065"
         d="m 801.39218,800.4209 c 0,0 -1.23588,-2.90868 -8.82473,-2.50675 -7.58883,0.40195 -8.66197,3.00143 -8.66197,3.00143 0,0 3.23944,1.86618 9.06618,1.45913 6.05021,-0.42264 8.42052,-1.95381 8.42052,-1.95381 z"
         id="path9"
         sodipodi:nodetypes="cscsc"
         inkscape:label="tongue" />
      <path
         style="fill:#ffffff;fill-opacity:1;stroke:none;stroke-width:1.86441;stroke-linecap:round;stroke-linejoin:bevel;stroke-dasharray:none;stroke-opacity:1"
         d="m 806.2096,790.78686 c 0,0 -0.13544,2.55516 -0.8672,3.13461 -0.73175,0.57944 -24.79043,0.3119 -25.42672,-6.9e-4 -0.6363,-0.3126 -0.7331,-2.96314 -0.7331,-2.96314 0,0 2.0651,-0.16586 5.37879,0.0203 2.88425,0.16203 5.96755,0.054 8.06298,0.0495 1.95913,-0.004 4.8974,0.0735 7.97649,-0.0631 3.88268,-0.17219 5.60876,-0.1775 5.60876,-0.1775 z"
         id="path11"
         sodipodi:nodetypes="csscsssc"
         inkscape:label="teeth" />
    </g>
    <path
       style="fill:#392316;fill-opacity:1;stroke:none;stroke-width:9.73687;stroke-linecap:round;stroke-linejoin:bevel;stroke-dasharray:none;stroke-opacity:1"
       d="m 496.44731,447.44982 -0.0298,15.20922 -37.65764,-4.67639 -34.76275,13.13952 16.02011,-18.96921 16.30981,-6.82768 z"
       id="path12-4"
       sodipodi:nodetypes="ccccccc"
       inkscape:label="left eyebrow" />
    <path
       style="fill:#392316;fill-opacity:1;stroke:none;stroke-width:9.73687;stroke-linecap:round;stroke-linejoin:bevel;stroke-dasharray:none;stroke-opacity:1"
       d="m 537.86358,447.69648 0.20118,15.20789 37.60251,-5.10077 34.9087,12.74667 -16.23299,-18.78735 -16.38577,-6.6433 z"
       id="path12-4-0"
       sodipodi:nodetypes="ccccccc"
       inkscape:label="right eyebrow" />
  </g>
</svg>
